<svg xmlns="http://www.w3.org/2000/svg" version="1.1" xmlns:xlink="http://www.w3.org/1999/xlink" xmlns:svgjs="http://svgjs.dev/svgjs" width="1000" height="179" viewBox="0 0 1000 179"><g transform="matrix(1,0,0,1,-0.06363162320207039,0.2849398623999946)"><svg viewBox="0 0 396 71" data-background-color="#ffffff" preserveAspectRatio="xMidYMid meet" height="179" width="1000" xmlns="http://www.w3.org/2000/svg" xmlns:xlink="http://www.w3.org/1999/xlink"><defs></defs><g id="tight-bounds" transform="matrix(1,0,0,1,0.2399999461636071,-0.1130208392759755)"><svg viewBox="0 0 395.52 71.22604167855192" height="71.22604167855192" width="395.52"><g><svg viewBox="0 0 529.7312123987401 95.39506829678021" height="71.22604167855192" width="395.52"><g><rect width="6.224910062745386" height="82.83218665422305" x="111.69072625550942" y="6.281440821278579" fill="#ffffff" opacity="1" stroke-width="0" stroke="transparent" fill-opacity="1" className="rect-o-0" data-fill-palette-color="primary" rx="1%" id="o-0" data-palette-color="#ffffff"></rect></g><g transform="matrix(1,0,0,1,134.2112123987401,13.184123042463831)"><svg viewBox="0 0 395.52 69.02682221185255" height="69.02682221185255" width="395.52"><g><svg viewBox="0 0 395.52 69.02682221185255" height="69.02682221185255" width="395.52"><g><svg viewBox="0 0 395.52 69.02682221185255" height="69.02682221185255" width="395.52"><g transform="matrix(1,0,0,1,0,0)"><svg width="395.52" viewBox="2.0799999237060547 -36.040000915527344 209.25 36.53000259399414" height="69.02682221185255" data-palette-color="#ffffff"><path d="M19.36-8.98L19.36-8.98Q19.36-11.65 17.92-13.06 16.48-14.48 12.72-15.82 8.96-17.16 6.97-18.64 4.98-20.12 3.99-22.01 3-23.9 3-26.34L3-26.34Q3-30.57 5.82-33.3 8.64-36.04 13.21-36.04L13.21-36.04Q16.33-36.04 18.77-34.63 21.22-33.23 22.53-30.74 23.85-28.25 23.85-25.27L23.85-25.27 19.36-25.27Q19.36-28.56 17.77-30.37 16.19-32.18 13.21-32.18L13.21-32.18Q10.5-32.18 9.01-30.66 7.52-29.15 7.52-26.42L7.52-26.42Q7.52-24.17 9.13-22.66 10.74-21.14 14.11-19.95L14.11-19.95Q19.36-18.21 21.62-15.67 23.88-13.13 23.88-9.03L23.88-9.03Q23.88-4.71 21.07-2.11 18.26 0.49 13.43 0.49L13.43 0.49Q10.33 0.49 7.7-0.87 5.08-2.22 3.58-4.68 2.08-7.13 2.08-10.3L2.08-10.3 6.57-10.3Q6.57-7.01 8.41-5.18 10.25-3.34 13.43-3.34L13.43-3.34Q16.38-3.34 17.87-4.86 19.36-6.37 19.36-8.98ZM52.85-21.12L52.85-14.65Q52.85-7.37 49.75-3.44 46.65 0.49 40.94 0.49L40.94 0.49Q35.45 0.49 32.26-3.33 29.07-7.15 28.95-14.14L28.95-14.14 28.95-20.83Q28.95-27.95 32.1-31.99 35.25-36.04 40.89-36.04L40.89-36.04Q46.51-36.04 49.64-32.17 52.78-28.3 52.85-21.12L52.85-21.12ZM48.39-14.21L48.39-20.87Q48.39-26.51 46.54-29.26 44.7-32.01 40.89-32.01L40.89-32.01Q37.2-32.01 35.31-29.22 33.42-26.44 33.4-21.02L33.4-21.02 33.4-14.65Q33.4-9.2 35.29-6.35 37.18-3.49 40.94-3.49 44.7-3.49 46.51-6.13 48.31-8.76 48.39-14.21L48.39-14.21ZM77.53-11.28L82.05-11.28Q81.76-5.57 78.84-2.54 75.92 0.49 70.6 0.49L70.6 0.49Q65.25 0.49 62.1-3.58 58.95-7.64 58.95-14.6L58.95-14.6 58.95-21.04Q58.95-27.98 62.19-32.01 65.42-36.04 71.02-36.04L71.02-36.04Q76.17-36.04 78.99-32.95 81.81-29.86 82.05-24.12L82.05-24.12 77.53-24.12Q77.24-28.47 75.7-30.32 74.16-32.18 71.02-32.18L71.02-32.18Q67.38-32.18 65.42-29.33 63.47-26.49 63.47-21L63.47-21 63.47-14.48Q63.47-9.08 65.29-6.2 67.11-3.32 70.6-3.32 74.09-3.32 75.63-5.05 77.17-6.79 77.53-11.28L77.53-11.28ZM92.77-35.55L92.77 0 88.3 0 88.3-35.55 92.77-35.55ZM120.42 0L117.62-9.28 105.61-9.28 102.85 0 98.26 0 109.71-35.55 113.54-35.55 125.01 0 120.42 0ZM111.61-29.3L106.78-13.13 116.47-13.13 111.61-29.3ZM134.34-35.55L134.34-3.83 148.28-3.83 148.28 0 129.85 0 129.85-35.55 134.34-35.55ZM158.26-35.55L158.26 0 153.79 0 153.79-35.55 158.26-35.55ZM185.65-32.1L169.44-3.83 186.31-3.83 186.31 0 164.48 0 164.48-3.52 180.67-31.69 164.66-31.69 164.66-35.55 185.65-35.55 185.65-32.1ZM209.26-20.26L209.26-16.43 196.68-16.43 196.68-3.83 211.33-3.83 211.33 0 192.22 0 192.22-35.55 211.09-35.55 211.09-31.69 196.68-31.69 196.68-20.26 209.26-20.26Z" opacity="1" transform="matrix(1,0,0,1,0,0)" fill="#ffffff" className="undefined-text-0" data-fill-palette-color="primary" id="text-0"></path></svg></g></svg></g></svg></g></svg></g><g><svg viewBox="0 0 95.39515017502411 95.39506829678021" height="95.39506829678021" width="95.39515017502411"><g><svg xmlns="http://www.w3.org/2000/svg" viewBox="9.999931335449219 10 80.00006866455078 80" style="enable-background:new 0 0 100 100" xml:space="preserve" x="0" y="0" height="95.39506829678021" width="95.39515017502411" className="icon-icon-0" data-fill-palette-color="accent" id="icon-0"><path d="M66.084 60.167a8.762 8.762 0 0 0 8.719-7.81l1.82-16.471c0.14 0.005 0.28 0.026 0.42 0.026C84.188 35.912 90 30.1 90 22.956 90 15.812 84.187 10 77.044 10c-6.806 0-12.392 5.279-12.905 11.956H47.506a1 1 0 0 0-0.994 1.11l3.235 29.292a8.762 8.762 0 0 0 8.719 7.809h2.808V78.53c-2.486 0.221-4.502 1.335-5.328 2.998-0.659 1.328-1.768 1.541-3.518 1.735-0.559 0.062-1.137 0.126-1.674 0.266-1.804 0.47-3.063 2.12-3.063 4.01V89a1 1 0 0 0 1 1h27.167a1 1 0 0 0 1-1v-1.46c0-1.89-1.258-3.539-3.061-4.01-0.52-0.135-1.071-0.205-1.603-0.272-1.497-0.19-2.79-0.354-3.62-1.786-0.928-1.597-2.935-2.67-5.3-2.924V60.167h2.81z m0.759 22.31c1.329 2.287 3.42 2.552 5.1 2.765 0.49 0.062 0.953 0.12 1.348 0.224 0.923 0.24 1.567 1.094 1.567 2.075V88H49.691v-0.46c0-0.98 0.645-1.833 1.568-2.074 0.397-0.104 0.879-0.157 1.39-0.214 1.644-0.182 3.896-0.432 5.088-2.834 0.552-1.11 2.188-1.87 4.168-1.935 2.215-0.077 4.204 0.728 4.938 1.993zM77.043 12C83.086 12 88 16.915 88 22.956s-4.915 10.956-10.956 10.956c-0.068 0-0.135-0.011-0.203-0.013l1.197-10.833a1 1 0 0 0-0.994-1.11H66.139C66.646 16.383 71.34 12 77.044 12z m-1.115 11.956l-1.068 9.669H49.69l-1.068-9.669h27.306zM51.735 52.138l-1.824-16.513H74.64l-1.825 16.513a6.764 6.764 0 0 1-6.73 6.029h-7.618a6.764 6.764 0 0 1-6.73-6.029z" fill="#fca60d" data-fill-palette-color="accent"></path><path d="M78.044 17.392V15.75a1 1 0 1 0-2 0v1.64a1 1 0 1 0 2 0zM72.656 17.154a1 1 0 1 0-1.414 1.414l1.16 1.16a0.997 0.997 0 0 0 1.414 0 1 1 0 0 0 0-1.414l-1.16-1.16zM81.432 28.757a0.997 0.997 0 0 0 1.414 0 1 1 0 0 0 0-1.414l-1.16-1.16a1 1 0 1 0-1.415 1.414l1.16 1.16zM81.608 22.956a1 1 0 0 0 1 1h1.641a1 1 0 1 0 0-2h-1.64a1 1 0 0 0-1 1zM80.979 20.021a0.997 0.997 0 0 0 0.707-0.292l1.16-1.16a1 1 0 1 0-1.414-1.415l-1.16 1.16a1 1 0 0 0 0.707 1.707zM29.578 60.167a8.76 8.76 0 0 0 8.719-7.81l3.236-29.291a1 1 0 0 0-0.994-1.11H11a1 1 0 0 0-0.994 1.11l3.235 29.292a8.763 8.763 0 0 0 8.72 7.809h2.809V78.53c-2.487 0.221-4.504 1.335-5.33 2.998-0.659 1.328-1.768 1.541-3.517 1.735-0.56 0.062-1.138 0.126-1.676 0.266-1.803 0.471-3.061 2.12-3.061 4.01V89a1 1 0 0 0 1 1h27.168a1 1 0 0 0 1-1v-1.46c0-1.89-1.26-3.539-3.062-4.01-0.52-0.135-1.071-0.205-1.603-0.272-1.497-0.19-2.79-0.354-3.62-1.786-0.928-1.597-2.927-2.671-5.3-2.925v-18.38h2.81z m0.76 22.31c1.328 2.287 3.419 2.552 5.1 2.765 0.49 0.062 0.954 0.12 1.348 0.224 0.923 0.24 1.568 1.094 1.568 2.075V88H13.186v-0.46c0-0.98 0.644-1.833 1.567-2.074 0.397-0.104 0.879-0.157 1.39-0.214 1.644-0.182 3.896-0.432 5.088-2.834 0.552-1.11 2.188-1.87 4.167-1.935 2.225-0.077 4.206 0.728 4.94 1.993z m9.085-58.52l-1.069 9.668h-25.17l-1.068-9.669h27.307zM15.229 52.137l-1.824-16.513h24.728L36.31 52.138a6.763 6.763 0 0 1-6.73 6.029H21.96a6.765 6.765 0 0 1-6.732-6.029z" fill="#fca60d" data-fill-palette-color="accent"></path></svg></g></svg></g></svg></g></svg><rect width="395.52" height="71.22604167855192" fill="none" stroke="none" visibility="hidden"></rect></g></svg></g></svg>