<svg xmlns="http://www.w3.org/2000/svg" viewBox="0 0 64 64"><g id="Layer_65" data-name="Layer 65"><path d="M32,21.54A10.47,10.47,0,0,0,21.54,32c.57,13.88,20.35,13.88,20.92,0A10.47,10.47,0,0,0,32,21.54Zm0,17.92A7.46,7.46,0,0,1,24.54,32c.35-9.88,14.58-9.88,14.92,0A7.46,7.46,0,0,1,32,39.46Z"/><path d="M53.94,26.57H50.72a18.83,18.83,0,0,0-1.65-4l2.28-2.28a1.49,1.49,0,0,0,0-2.12l-5.56-5.56a1.49,1.49,0,0,0-2.12,0l-2.28,2.28a18.83,18.83,0,0,0-4-1.65V10.06a1.5,1.5,0,0,0-1.5-1.5H28.07a1.5,1.5,0,0,0-1.5,1.5v3.22a18.83,18.83,0,0,0-4,1.65l-2.28-2.28a1.49,1.49,0,0,0-2.12,0l-5.56,5.56a1.49,1.49,0,0,0,0,2.12l2.28,2.28a18.83,18.83,0,0,0-1.65,4H10.06a1.5,1.5,0,0,0-1.5,1.5v7.86a1.5,1.5,0,0,0,1.5,1.5h3.22a18.83,18.83,0,0,0,1.65,4l-2.28,2.28a1.49,1.49,0,0,0,0,2.12l5.56,5.56a1.49,1.49,0,0,0,2.12,0l2.28-2.28a18.83,18.83,0,0,0,4,1.65v3.22a1.5,1.5,0,0,0,1.5,1.5h7.86a1.5,1.5,0,0,0,1.5-1.5V50.72a18.83,18.83,0,0,0,4-1.65l2.28,2.28a1.49,1.49,0,0,0,2.12,0l5.56-5.56a1.49,1.49,0,0,0,0-2.12l-2.28-2.28a18.83,18.83,0,0,0,1.65-4h3.22a1.5,1.5,0,0,0,1.5-1.5V28.07A1.5,1.5,0,0,0,53.94,26.57Zm-1.5,7.86H49.56l-.13,0a1.51,1.51,0,0,0-1.33,1.16,17.07,17.07,0,0,1-2.28,5.45,1.55,1.55,0,0,0,0,1.16,22.12,22.12,0,0,0,2.36,2.51l-3.44,3.44-2-2a1.53,1.53,0,0,0-1.89-.22,15.85,15.85,0,0,1-5.22,2.17,1.53,1.53,0,0,0-1.18,1.49v2.85H29.57V49.59a1.54,1.54,0,0,0-.91-1.4,17,17,0,0,1-5.49-2.26,1.53,1.53,0,0,0-1.89.22l-2,2-3.44-3.44,2-2a1.54,1.54,0,0,0,.22-1.89,17,17,0,0,1-2.26-5.49,1.51,1.51,0,0,0-1.4-.91H11.56V29.57a25.3,25.3,0,0,0,3.4-.1,1.52,1.52,0,0,0,.93-1.06,16.19,16.19,0,0,1,2.18-5.24,1.54,1.54,0,0,0-.22-1.89l-2-2,3.44-3.44,2,2a1.54,1.54,0,0,0,1.87.21,17,17,0,0,1,5.49-2.26,1.54,1.54,0,0,0,.91-1.4V11.56h4.86v2.85a1.54,1.54,0,0,0,.91,1.4,17,17,0,0,1,5.49,2.26,1.54,1.54,0,0,0,1.87-.21l2-2,3.44,3.44a23,23,0,0,0-2.36,2.51,1.55,1.55,0,0,0,0,1.16,17.07,17.07,0,0,1,2.28,5.45,1.54,1.54,0,0,0,1.46,1.18h2.88Z"/></g></svg>