<svg width="12" height="4" viewBox="0 0 12 4" fill="none" xmlns="http://www.w3.org/2000/svg">
<path d="M2.03338 3.10938C1.73177 3.10938 1.47325 3.00331 1.25781 2.79119C1.04238 2.57907 0.936316 2.32055 0.939631 2.01562C0.936316 1.71733 1.04238 1.46212 1.25781 1.25C1.47325 1.03788 1.73177 0.931818 2.03338 0.931818C2.32505 0.931818 2.5786 1.03788 2.79403 1.25C3.01278 1.46212 3.12382 1.71733 3.12713 2.01562C3.12382 2.2178 3.07079 2.40175 2.96804 2.56747C2.86861 2.73319 2.73603 2.86577 2.57031 2.9652C2.40791 3.06132 2.22893 3.10938 2.03338 3.10938ZM6.23393 3.10938C5.93232 3.10938 5.67379 3.00331 5.45836 2.79119C5.24292 2.57907 5.13686 2.32055 5.14018 2.01562C5.13686 1.71733 5.24292 1.46212 5.45836 1.25C5.67379 1.03788 5.93232 0.931818 6.23393 0.931818C6.52559 0.931818 6.77915 1.03788 6.99458 1.25C7.21333 1.46212 7.32436 1.71733 7.32768 2.01562C7.32436 2.2178 7.27133 2.40175 7.16859 2.56747C7.06915 2.73319 6.93658 2.86577 6.77086 2.9652C6.60845 3.06132 6.42948 3.10938 6.23393 3.10938ZM10.4345 3.10938C10.1329 3.10938 9.87434 3.00331 9.65891 2.79119C9.44347 2.57907 9.33741 2.32055 9.34072 2.01562C9.33741 1.71733 9.44347 1.46212 9.65891 1.25C9.87434 1.03788 10.1329 0.931818 10.4345 0.931818C10.7261 0.931818 10.9797 1.03788 11.1951 1.25C11.4139 1.46212 11.5249 1.71733 11.5282 2.01562C11.5249 2.2178 11.4719 2.40175 11.3691 2.56747C11.2697 2.73319 11.1371 2.86577 10.9714 2.9652C10.809 3.06132 10.63 3.10938 10.4345 3.10938Z" fill="#666666"/>
</svg>
